<?xml version="1.0" standalone="no"?><!DOCTYPE svg PUBLIC "-//W3C//DTD SVG 1.1//EN" "http://www.w3.org/Graphics/SVG/1.1/DTD/svg11.dtd"><svg t="1552532458185" class="icon" style="" viewBox="0 0 1024 1024" version="1.1" xmlns="http://www.w3.org/2000/svg" p-id="2465" xmlns:xlink="http://www.w3.org/1999/xlink" width="12" height="12"><defs><style type="text/css"></style></defs><path d="M821.1 595c14.6 8.2 24 20.5 28.3 36.8s2.3 31.8-5.9 46.4L813 730.5c-8.2 14.6-20.5 24-36.8 28.3s-31.8 2.3-46.4-5.9l-126.5-72.7v146c0 16.5-6 30.7-18.1 42.8-12.1 12-26.3 18.1-42.8 18.1h-60.9c-16.5 0-30.7-6-42.8-18.1-12-12-18.1-26.3-18.1-42.8v-146l-126.5 72.7c-14.6 8.2-30 10.2-46.4 5.9-16.3-4.3-28.6-13.7-36.8-28.3l-30.4-52.3c-8.2-14.6-10.2-30-5.9-46.4 4.3-16.3 13.7-28.6 28.3-36.8l126.5-73.2-126.5-73.2c-14.6-8.2-24-20.5-28.3-36.8s-2.3-31.8 5.9-46.4L211 313c8.2-14.6 20.5-24 36.8-28.3s31.8-2.3 46.4 5.9l126.5 72.7v-146c0-16.5 6-30.7 18.1-42.8 12-12 26.3-18.1 42.8-18.1h60.9c16.5 0 30.7 6 42.8 18.1 12 12.1 18.1 26.3 18.1 42.8v146l126.5-72.7c14.6-8.2 30-10.2 46.4-5.9 16.3 4.3 28.6 13.7 36.8 28.3l30.4 52.3c8.2 14.6 10.2 30 5.9 46.4-4.3 16.3-13.7 28.6-28.3 36.8l-126.5 73.2L821.1 595z" p-id="2466" fill="#FFCC00"></path></svg>